<svg width="100" height="100" viewBox="0 0 100 100" fill="none" xmlns="http://www.w3.org/2000/svg">
<g clip-path="url(#clip0_115_35)">
<path d="M10.1047 15.0465H13.407V18.3488H10.1047V15.0465ZM6.80233 18.3488H10.1047V21.6512H6.80233V18.3488ZM6.80233 15.0465H10.1047V18.3488H6.80233V15.0465ZM13.407 8.44186H16.7093V11.7442H13.407V8.44186ZM13.407 11.7442H16.7093V15.0465H13.407V11.7442ZM16.7093 11.7442H20.0116V15.0465H16.7093V11.7442ZM16.7093 8.44186H20.0116V11.7442H16.7093V8.44186ZM20.0116 8.44186H23.314V11.7442H20.0116V8.44186ZM23.314 8.44186H26.6163V11.7442H23.314V8.44186ZM23.314 11.7442H26.6163V15.0465H23.314V11.7442ZM20.0116 11.7442H23.314V15.0465H20.0116V11.7442ZM26.6163 8.44186H29.9186V11.7442H26.6163V8.44186ZM29.9186 11.7442H33.2209V15.0465H29.9186V11.7442ZM26.6163 11.7442H29.9186V15.0465H26.6163V11.7442ZM59.6395 8.44186H62.9419V11.7442H59.6395V8.44186ZM62.9419 8.44186H66.2442V11.7442H62.9419V8.44186ZM62.9419 11.7442H66.2442V15.0465H62.9419V11.7442ZM59.6395 11.7442H62.9419V15.0465H59.6395V11.7442ZM33.2209 15.0465H36.5233V18.3488H33.2209V15.0465ZM36.5233 15.0465H39.8256V18.3488H36.5233V15.0465ZM36.5233 18.3488H39.8256V21.6512H36.5233V18.3488ZM36.5233 21.6512H39.8256V24.9535H36.5233V21.6512ZM36.5233 24.9535H39.8256V28.2558H36.5233V24.9535ZM36.5233 28.2558H39.8256V31.5581H36.5233V28.2558ZM36.5233 31.5581H39.8256V34.8605H36.5233V31.5581ZM33.2209 31.5581H36.5233V34.8605H33.2209V31.5581ZM33.2209 28.2558H36.5233V31.5581H33.2209V28.2558ZM33.2209 24.9535H36.5233V28.2558H33.2209V24.9535ZM33.2209 21.6512H36.5233V24.9535H33.2209V21.6512ZM33.2209 18.3488H36.5233V21.6512H33.2209V18.3488ZM46.4302 15.0465H49.7326V18.3488H46.4302V15.0465ZM49.7326 15.0465H53.0349V18.3488H49.7326V15.0465ZM53.0349 15.0465H56.3372V18.3488H53.0349V15.0465ZM56.3372 15.0465H59.6395V18.3488H56.3372V15.0465ZM56.3372 18.3488H59.6395V21.6512H56.3372V18.3488ZM56.3372 21.6512H59.6395V24.9535H56.3372V21.6512ZM56.3372 24.9535H59.6395V28.2558H56.3372V24.9535ZM56.3372 28.2558H59.6395V31.5581H56.3372V28.2558ZM56.3372 31.5581H59.6395V34.8605H56.3372V31.5581ZM49.7326 31.5581H53.0349V34.8605H49.7326V31.5581ZM46.4302 31.5581H49.7326V34.8605H46.4302V31.5581ZM46.4302 28.2558H49.7326V31.5581H46.4302V28.2558ZM46.4302 24.9535H49.7326V28.2558H46.4302V24.9535ZM46.4302 21.6512H49.7326V24.9535H46.4302V21.6512ZM46.4302 18.3488H49.7326V21.6512H46.4302V18.3488ZM49.7326 18.3488H53.0349V21.6512H49.7326V18.3488ZM53.0349 18.3488H56.3372V21.6512H53.0349V18.3488ZM53.0349 21.6512H56.3372V24.9535H53.0349V21.6512ZM53.0349 24.9535H56.3372V28.2558H53.0349V24.9535ZM53.0349 28.2558H56.3372V31.5581H53.0349V28.2558ZM49.7326 28.2558H53.0349V31.5581H49.7326V28.2558ZM49.7326 24.9535H53.0349V28.2558H49.7326V24.9535ZM49.7326 21.6512H53.0349V24.9535H49.7326V21.6512ZM53.0349 31.5581H56.3372V34.8605H53.0349V31.5581ZM29.9186 34.8605H33.2209V38.1628H29.9186V34.8605ZM26.6163 34.8605H29.9186V38.1628H26.6163V34.8605ZM26.6163 38.1628H29.9186V41.4651H26.6163V38.1628ZM29.9186 38.1628H33.2209V41.4651H29.9186V38.1628ZM23.314 34.8605H26.6163V38.1628H23.314V34.8605ZM20.0116 34.8605H23.314V38.1628H20.0116V34.8605ZM20.0116 38.1628H23.314V41.4651H20.0116V38.1628ZM23.314 38.1628H26.6163V41.4651H23.314V38.1628ZM29.9186 48.0698H33.2209V51.3721H29.9186V48.0698ZM26.6163 48.0698H29.9186V51.3721H26.6163V48.0698ZM26.6163 51.3721H29.9186V54.6744H26.6163V51.3721ZM29.9186 51.3721H33.2209V54.6744H29.9186V51.3721ZM23.314 48.0698H26.6163V51.3721H23.314V48.0698ZM20.0116 48.0698H23.314V51.3721H20.0116V48.0698ZM20.0116 51.3721H23.314V54.6744H20.0116V51.3721ZM23.314 51.3721H26.6163V54.6744H23.314V51.3721ZM33.2209 34.8605H36.5233V38.1628H33.2209V34.8605ZM33.2209 38.1628H36.5233V41.4651H33.2209V38.1628ZM33.2209 41.4651H36.5233V44.7674H33.2209V41.4651ZM33.2209 44.7674H36.5233V48.0698H33.2209V44.7674ZM33.2209 48.0698H36.5233V51.3721H33.2209V48.0698ZM33.2209 51.3721H36.5233V54.6744H33.2209V51.3721ZM33.2209 54.6744H36.5233V57.9767H33.2209V54.6744ZM36.5233 54.6744H39.8256V57.9767H36.5233V54.6744ZM36.5233 51.3721H39.8256V54.6744H36.5233V51.3721ZM36.5233 48.0698H39.8256V51.3721H36.5233V48.0698ZM36.5233 44.7674H39.8256V48.0698H36.5233V44.7674ZM36.5233 41.4651H39.8256V44.7674H36.5233V41.4651ZM36.5233 38.1628H39.8256V41.4651H36.5233V38.1628ZM36.5233 34.8605H39.8256V38.1628H36.5233V34.8605ZM33.2209 57.9767H36.5233V61.2791H33.2209V57.9767ZM36.5233 57.9767H39.8256V61.2791H36.5233V57.9767ZM33.2209 61.2791H36.5233V64.5814H33.2209V61.2791ZM36.5233 61.2791H39.8256V64.5814H36.5233V61.2791ZM36.5233 64.5814H39.8256V67.8837H36.5233V64.5814ZM33.2209 64.5814H36.5233V67.8837H33.2209V64.5814ZM46.4302 34.8605H49.7326V38.1628H46.4302V34.8605ZM46.4302 38.1628H49.7326V41.4651H46.4302V38.1628ZM46.4302 41.4651H49.7326V44.7674H46.4302V41.4651ZM46.4302 44.7674H49.7326V48.0698H46.4302V44.7674ZM46.4302 48.0698H49.7326V51.3721H46.4302V48.0698ZM46.4302 51.3721H49.7326V54.6744H46.4302V51.3721ZM46.4302 54.6744H49.7326V57.9767H46.4302V54.6744ZM46.4302 57.9767H49.7326V61.2791H46.4302V57.9767ZM46.4302 61.2791H49.7326V64.5814H46.4302V61.2791ZM46.4302 64.5814H49.7326V67.8837H46.4302V64.5814ZM49.7326 64.5814H53.0349V67.8837H49.7326V64.5814ZM49.7326 61.2791H53.0349V64.5814H49.7326V61.2791ZM53.0349 57.9767H56.3372V61.2791H53.0349V57.9767ZM56.3372 57.9767H59.6395V61.2791H56.3372V57.9767ZM56.3372 54.6744H59.6395V57.9767H56.3372V54.6744ZM53.0349 54.6744H56.3372V57.9767H53.0349V54.6744ZM49.7326 57.9767H53.0349V61.2791H49.7326V57.9767ZM49.7326 54.6744H53.0349V57.9767H49.7326V54.6744ZM49.7326 51.3721H53.0349V54.6744H49.7326V51.3721ZM49.7326 48.0698H53.0349V51.3721H49.7326V48.0698ZM49.7326 44.7674H53.0349V48.0698H49.7326V44.7674ZM49.7326 41.4651H53.0349V44.7674H49.7326V41.4651ZM49.7326 38.1628H53.0349V41.4651H49.7326V38.1628ZM49.7326 34.8605H53.0349V38.1628H49.7326V34.8605ZM53.0349 34.8605H56.3372V38.1628H53.0349V34.8605ZM56.3372 34.8605H59.6395V38.1628H56.3372V34.8605ZM56.3372 38.1628H59.6395V41.4651H56.3372V38.1628ZM56.3372 41.4651H59.6395V44.7674H56.3372V41.4651ZM53.0349 41.4651H56.3372V44.7674H53.0349V41.4651ZM53.0349 44.7674H56.3372V48.0698H53.0349V44.7674ZM53.0349 48.0698H56.3372V51.3721H53.0349V48.0698ZM53.0349 51.3721H56.3372V54.6744H53.0349V51.3721ZM53.0349 38.1628H56.3372V41.4651H53.0349V38.1628ZM56.3372 48.0698H59.6395V51.3721H56.3372V48.0698ZM56.3372 51.3721H59.6395V54.6744H56.3372V51.3721ZM56.3372 44.7674H59.6395V48.0698H56.3372V44.7674ZM20.0116 87.6977H23.314V91H20.0116V87.6977ZM20.0116 84.3953H23.314V87.6977H20.0116V84.3953ZM23.314 84.3953H26.6163V87.6977H23.314V84.3953ZM26.6163 81.093H29.9186V84.3953H26.6163V81.093ZM26.6163 77.7907H29.9186V81.093H26.6163V77.7907ZM29.9186 77.7907H33.2209V81.093H29.9186V77.7907ZM29.9186 81.093H33.2209V84.3953H29.9186V81.093ZM33.2209 81.093H36.5233V84.3953H33.2209V81.093ZM36.5233 81.093H39.8256V84.3953H36.5233V81.093ZM39.8256 81.093H43.1279V84.3953H39.8256V81.093ZM46.4302 81.093H49.7326V84.3953H46.4302V81.093ZM49.7326 77.7907H53.0349V81.093H49.7326V77.7907ZM46.4302 77.7907H49.7326V81.093H46.4302V77.7907ZM39.8256 77.7907H43.1279V81.093H39.8256V77.7907ZM36.5233 77.7907H39.8256V81.093H36.5233V77.7907ZM33.2209 77.7907H36.5233V81.093H33.2209V77.7907ZM53.0349 77.7907H56.3372V81.093H53.0349V77.7907ZM56.3372 81.093H59.6395V84.3953H56.3372V81.093ZM59.6395 81.093H62.9419V84.3953H59.6395V81.093ZM62.9419 81.093H66.2442V84.3953H62.9419V81.093ZM53.0349 81.093H56.3372V84.3953H53.0349V81.093ZM49.7326 81.093H53.0349V84.3953H49.7326V81.093ZM59.6395 77.7907H62.9419V81.093H59.6395V77.7907ZM56.3372 77.7907H59.6395V81.093H56.3372V77.7907ZM62.9419 77.7907H66.2442V81.093H62.9419V77.7907ZM59.6395 41.4651H62.9419V44.7674H59.6395V41.4651ZM62.9419 44.7674H66.2442V48.0698H62.9419V44.7674ZM62.9419 41.4651H66.2442V44.7674H62.9419V41.4651ZM69.5465 8.44186H72.8488V11.7442H69.5465V8.44186ZM69.5465 11.7442H72.8488V15.0465H69.5465V11.7442ZM66.2442 11.7442H69.5465V15.0465H66.2442V11.7442ZM72.8488 8.44186H76.1512V11.7442H72.8488V8.44186ZM72.8488 11.7442H76.1512V15.0465H72.8488V11.7442ZM76.1512 8.44186H79.4535V11.7442H76.1512V8.44186ZM76.1512 11.7442H79.4535V15.0465H76.1512V11.7442ZM79.4535 11.7442H82.7558V15.0465H79.4535V11.7442ZM79.4535 8.44186H82.7558V11.7442H79.4535V8.44186ZM79.4535 15.0465H82.7558V18.3488H79.4535V15.0465ZM76.1512 15.0465H79.4535V18.3488H76.1512V15.0465ZM79.4535 18.3488H82.7558V21.6512H79.4535V18.3488ZM76.1512 18.3488H79.4535V21.6512H76.1512V18.3488ZM82.7558 15.0465H86.0581V18.3488H82.7558V15.0465ZM86.0581 15.0465H89.3605V18.3488H86.0581V15.0465ZM86.0581 18.3488H89.3605V21.6512H86.0581V18.3488ZM82.7558 18.3488H86.0581V21.6512H82.7558V18.3488ZM86.0581 21.6512H89.3605V24.9535H86.0581V21.6512ZM82.7558 21.6512H86.0581V24.9535H82.7558V21.6512ZM79.4535 24.9535H82.7558V28.2558H79.4535V24.9535ZM82.7558 24.9535H86.0581V28.2558H82.7558V24.9535ZM86.0581 24.9535H89.3605V28.2558H86.0581V24.9535ZM86.0581 28.2558H89.3605V31.5581H86.0581V28.2558ZM82.7558 28.2558H86.0581V31.5581H82.7558V28.2558ZM82.7558 31.5581H86.0581V34.8605H82.7558V31.5581ZM86.0581 31.5581H89.3605V34.8605H86.0581V31.5581ZM79.4535 21.6512H82.7558V24.9535H79.4535V21.6512ZM76.1512 24.9535H79.4535V28.2558H76.1512V24.9535ZM76.1512 21.6512H79.4535V24.9535H76.1512V21.6512ZM76.1512 28.2558H79.4535V31.5581H76.1512V28.2558ZM76.1512 31.5581H79.4535V34.8605H76.1512V31.5581ZM79.4535 31.5581H82.7558V34.8605H79.4535V31.5581ZM79.4535 28.2558H82.7558V31.5581H79.4535V28.2558ZM79.4535 34.8605H82.7558V38.1628H79.4535V34.8605ZM79.4535 38.1628H82.7558V41.4651H79.4535V38.1628ZM76.1512 34.8605H79.4535V38.1628H76.1512V34.8605ZM76.1512 38.1628H79.4535V41.4651H76.1512V38.1628ZM72.8488 41.4651H76.1512V44.7674H72.8488V41.4651ZM69.5465 41.4651H72.8488V44.7674H69.5465V41.4651ZM66.2442 41.4651H69.5465V44.7674H66.2442V41.4651ZM69.5465 44.7674H72.8488V48.0698H69.5465V44.7674ZM72.8488 44.7674H76.1512V48.0698H72.8488V44.7674ZM79.4535 48.0698H82.7558V51.3721H79.4535V48.0698ZM82.7558 48.0698H86.0581V51.3721H82.7558V48.0698ZM89.3605 54.6744H92.6628V57.9767H89.3605V54.6744ZM89.3605 57.9767H92.6628V61.2791H89.3605V57.9767ZM86.0581 57.9767H89.3605V61.2791H86.0581V57.9767ZM82.7558 57.9767H86.0581V61.2791H82.7558V57.9767ZM79.4535 57.9767H82.7558V61.2791H79.4535V57.9767ZM79.4535 54.6744H82.7558V57.9767H79.4535V54.6744ZM79.4535 51.3721H82.7558V54.6744H79.4535V51.3721ZM82.7558 51.3721H86.0581V54.6744H82.7558V51.3721ZM86.0581 54.6744H89.3605V57.9767H86.0581V54.6744ZM82.7558 54.6744H86.0581V57.9767H82.7558V54.6744ZM86.0581 51.3721H89.3605V54.6744H86.0581V51.3721ZM79.4535 61.2791H82.7558V64.5814H79.4535V61.2791ZM82.7558 61.2791H86.0581V64.5814H82.7558V61.2791ZM86.0581 61.2791H89.3605V64.5814H86.0581V61.2791ZM89.3605 61.2791H92.6628V64.5814H89.3605V61.2791ZM89.3605 64.5814H92.6628V67.8837H89.3605V64.5814ZM86.0581 64.5814H89.3605V67.8837H86.0581V64.5814ZM82.7558 64.5814H86.0581V67.8837H82.7558V64.5814ZM79.4535 64.5814H82.7558V67.8837H79.4535V64.5814ZM79.4535 67.8837H82.7558V71.186H79.4535V67.8837ZM82.7558 67.8837H86.0581V71.186H82.7558V67.8837ZM86.0581 67.8837H89.3605V71.186H86.0581V67.8837ZM89.3605 67.8837H92.6628V71.186H89.3605V67.8837ZM89.3605 71.186H92.6628V74.4884H89.3605V71.186ZM86.0581 71.186H89.3605V74.4884H86.0581V71.186ZM82.7558 71.186H86.0581V74.4884H82.7558V71.186ZM79.4535 71.186H82.7558V74.4884H79.4535V71.186ZM33.2209 67.8837H36.5233V71.186H33.2209V67.8837ZM36.5233 67.8837H39.8256V71.186H36.5233V67.8837ZM46.4302 67.8837H49.7326V71.186H46.4302V67.8837ZM49.7326 67.8837H53.0349V71.186H49.7326V67.8837ZM53.0349 61.2791H56.3372V64.5814H53.0349V61.2791ZM56.3372 61.2791H59.6395V64.5814H56.3372V61.2791ZM79.4535 74.4884H82.7558V77.7907H79.4535V74.4884ZM82.7558 74.4884H86.0581V77.7907H82.7558V74.4884ZM86.0581 74.4884H89.3605V77.7907H86.0581V74.4884ZM76.1512 77.7907H79.4535V81.093H76.1512V77.7907ZM76.1512 81.093H79.4535V84.3953H76.1512V81.093ZM72.8488 81.093H76.1512V84.3953H72.8488V81.093ZM69.5465 81.093H72.8488V84.3953H69.5465V81.093ZM66.2442 81.093H69.5465V84.3953H66.2442V81.093ZM66.2442 77.7907H69.5465V81.093H66.2442V77.7907ZM69.5465 77.7907H72.8488V81.093H69.5465V77.7907ZM72.8488 77.7907H76.1512V81.093H72.8488V77.7907ZM62.9419 84.3953H66.2442V87.6977H62.9419V84.3953ZM59.6395 84.3953H62.9419V87.6977H59.6395V84.3953ZM59.6395 87.6977H62.9419V91H59.6395V87.6977ZM62.9419 87.6977H66.2442V91H62.9419V87.6977ZM56.3372 84.3953H59.6395V87.6977H56.3372V84.3953ZM53.0349 84.3953H56.3372V87.6977H53.0349V84.3953ZM53.0349 87.6977H56.3372V91H53.0349V87.6977ZM56.3372 87.6977H59.6395V91H56.3372V87.6977ZM82.7558 34.8605H86.0581V38.1628H82.7558V34.8605ZM76.1512 41.4651H79.4535V44.7674H76.1512V41.4651ZM82.7558 11.7442H86.0581V15.0465H82.7558V11.7442ZM56.3372 11.7442H59.6395V15.0465H56.3372V11.7442ZM59.6395 15.0465H62.9419V18.3488H59.6395V15.0465ZM10.1047 11.7442H13.407V15.0465H10.1047V11.7442ZM23.314 81.093H26.6163V84.3953H23.314V81.093ZM49.7326 84.3953H53.0349V87.6977H49.7326V84.3953ZM66.2442 84.3953H69.5465V87.6977H66.2442V84.3953ZM79.4535 77.7907H82.7558V81.093H79.4535V77.7907ZM53.0349 64.5814H56.3372V67.8837H53.0349V64.5814ZM29.9186 15.0465H33.2209V18.3488H29.9186V15.0465ZM72.8488 15.0465H76.1512V18.3488H72.8488V15.0465ZM76.1512 74.4884H79.4535V77.7907H76.1512V74.4884ZM59.6395 44.7674H62.9419V48.0698H59.6395V44.7674ZM72.8488 84.3953H76.1512V87.6977H72.8488V84.3953ZM69.5465 84.3953H72.8488V87.6977H69.5465V84.3953ZM69.5465 87.6977H72.8488V91H69.5465V87.6977ZM66.2442 87.6977H69.5465V91H66.2442V87.6977ZM72.8488 38.1628H76.1512V41.4651H72.8488V38.1628ZM43.1279 77.7907H46.4302V81.093H43.1279V77.7907ZM43.1279 81.093H46.4302V84.3953H43.1279V81.093ZM39.8256 11.7442H43.1279V15.0465H39.8256V11.7442ZM39.8256 8.44186H43.1279V11.7442H39.8256V8.44186ZM43.1279 8.44186H46.4302V11.7442H43.1279V8.44186ZM43.1279 11.7442H46.4302V15.0465H43.1279V11.7442ZM36.5233 11.7442H39.8256V15.0465H36.5233V11.7442ZM46.4302 11.7442H49.7326V15.0465H46.4302V11.7442ZM66.2442 8.44186H69.5465V11.7442H66.2442V8.44186ZM66.2442 44.7674H69.5465V48.0698H66.2442V44.7674ZM76.1512 48.0698H79.4535V51.3721H76.1512V48.0698ZM86.0581 48.0698H89.3605V51.3721H86.0581V48.0698ZM89.3605 51.3721H92.6628V54.6744H89.3605V51.3721ZM76.1512 44.7674H79.4535V48.0698H76.1512V44.7674ZM79.4535 44.7674H82.7558V48.0698H79.4535V44.7674ZM82.7558 44.7674H86.0581V48.0698H82.7558V44.7674Z" fill="#4169E1"/>
</g>
<defs>
<clipPath id="clip0_115_35">
<rect width="100" height="100" fill="white"/>
</clipPath>
</defs>
</svg>
